<svg xmlns="http://www.w3.org/2000/svg" width="17.209" height="11.473" viewBox="0 0 17.209 11.473"><defs><style>.a{fill:#fff;}.b{fill:#13378d;}.c{fill:#e11419;}</style></defs><g transform="translate(-23.585 -1467.964)"><rect class="a" width="17.209" height="11.472" transform="translate(23.585 1467.964)"/><rect class="b" width="8.755" height="7.246" transform="translate(23.585 1467.964)"/><rect class="a" width="1.208" height="1.208" transform="translate(24.491 1473.097)"/><rect class="a" width="1.208" height="1.208" transform="translate(26.604 1473.097)"/><rect class="a" width="1.208" height="1.208" transform="translate(28.717 1473.097)"/><rect class="a" width="1.208" height="1.208" transform="translate(26 1470.984)"/><rect class="a" width="1.208" height="1.208" transform="translate(28.113 1470.984)"/><rect class="a" width="1.208" height="1.208" transform="translate(30.227 1470.984)"/><rect class="a" width="1.208" height="1.208" transform="translate(24.491 1468.87)"/><rect class="a" width="1.208" height="1.208" transform="translate(26.604 1468.87)"/><rect class="a" width="1.208" height="1.208" transform="translate(28.717 1468.87)"/><rect class="c" width="17.209" height="0.906" transform="translate(23.585 1478.531)"/><rect class="c" width="17.209" height="0.906" transform="translate(23.585 1476.418)"/><rect class="c" width="8.454" height="0.906" transform="translate(32.34 1474.304)"/><rect class="c" width="8.454" height="0.906" transform="translate(32.34 1472.191)"/><rect class="c" width="8.454" height="0.906" transform="translate(32.34 1470.078)"/><rect class="c" width="8.454" height="0.906" transform="translate(32.34 1467.964)"/></g></svg>