<svg xmlns="http://www.w3.org/2000/svg" width="24.826" height="24.826" viewBox="0 0 24.826 24.826"><defs><style>.a{fill:#fff;}</style></defs><g transform="translate(-188.426 -1253.752)"><path class="a" d="M200.839,1268.65a2.481,2.481,0,1,0-2.485-2.485A2.489,2.489,0,0,0,200.839,1268.65Z"/><path class="a" d="M206.265,1263.125v-2.393h-.312l-2.082.007.008,2.393Z"/><path class="a" d="M200.839,1253.752a12.413,12.413,0,1,0,12.413,12.413A12.428,12.428,0,0,0,200.839,1253.752Zm7.06,10.965v5.78a2.732,2.732,0,0,1-2.729,2.729h-8.662a2.731,2.731,0,0,1-2.728-2.729v-8.662a2.731,2.731,0,0,1,2.728-2.729h8.662a2.732,2.732,0,0,1,2.729,2.729Z"/><path class="a" d="M204.7,1266.165a3.861,3.861,0,1,1-7.438-1.448h-2.107v5.78a1.352,1.352,0,0,0,1.353,1.352h8.661a1.352,1.352,0,0,0,1.353-1.352v-5.78h-2.108A3.814,3.814,0,0,1,204.7,1266.165Z"/></g></svg>