<svg xmlns="http://www.w3.org/2000/svg" width="24.826" height="24.826" viewBox="0 0 24.826 24.826"><defs><style>.a{fill:#fff;}</style></defs><g transform="translate(-105.74 -1253.752)"><path class="a" d="M118.153,1253.752a12.413,12.413,0,1,0,12.413,12.413A12.428,12.428,0,0,0,118.153,1253.752Zm5.538,9.572c0,.123.008.247.008.371a8.125,8.125,0,0,1-12.509,6.845,5.771,5.771,0,0,0,4.23-1.183,2.861,2.861,0,0,1-2.669-1.984,2.807,2.807,0,0,0,.537.051,2.866,2.866,0,0,0,.753-.1,2.857,2.857,0,0,1-2.291-2.8v-.036a2.836,2.836,0,0,0,1.294.357,2.859,2.859,0,0,1-.884-3.814,8.11,8.11,0,0,0,5.888,2.986,2.859,2.859,0,0,1,4.869-2.607,5.715,5.715,0,0,0,1.815-.693,2.872,2.872,0,0,1-1.257,1.581,5.684,5.684,0,0,0,1.641-.45A5.769,5.769,0,0,1,123.691,1263.324Z"/></g></svg>