<svg xmlns="http://www.w3.org/2000/svg" width="25" height="25" viewBox="0 0 25 25"><defs><style>.a{fill:#fff;}</style></defs><path class="a" d="M283.525,1253.665a12.5,12.5,0,1,0,12.5,12.5A12.5,12.5,0,0,0,283.525,1253.665Zm-3.518,13.788h-1.184v5.611h-1.145v-5.611h-1.184v-.953h3.513Zm.032-1.088h-1.287V1263.5l-1.532-4.367h1.3l.835,2.89h.081l.8-2.89h1.308l-1.5,4.231Zm3.313,6.7h-1.015v-.534a2.139,2.139,0,0,1-.586.449,1.272,1.272,0,0,1-.589.155.645.645,0,0,1-.531-.216,1,1,0,0,1-.179-.649v-4.05h1.016v3.715a.4.4,0,0,0,.063.249.259.259,0,0,0,.208.077.59.59,0,0,0,.283-.1,1.347,1.347,0,0,0,.315-.259v-3.679h1.015Zm-.072-6.565a1.741,1.741,0,0,1-1.2-.4,1.382,1.382,0,0,1-.45-1.082v-2.766a1.19,1.19,0,0,1,.462-.986,1.936,1.936,0,0,1,1.24-.369,1.729,1.729,0,0,1,1.165.389,1.255,1.255,0,0,1,.451,1v2.755a1.355,1.355,0,0,1-.443,1.074A1.8,1.8,0,0,1,283.28,1266.5Zm3.756,5.563a1.179,1.179,0,0,1-.238.789.867.867,0,0,1-.691.274,1.249,1.249,0,0,1-.531-.106,1.3,1.3,0,0,1-.434-.328v.372h-1.026V1266.5h1.026v2.113a1.541,1.541,0,0,1,.436-.336,1.032,1.032,0,0,1,.467-.115.9.9,0,0,1,.737.309,1.4,1.4,0,0,1,.254.9Zm-.361-5.621a.74.74,0,0,1-.6-.238,1.091,1.091,0,0,1-.2-.715v-4.459h1.142v4.09a.414.414,0,0,0,.074.274.284.284,0,0,0,.232.086.684.684,0,0,0,.319-.113,1.486,1.486,0,0,0,.352-.287v-4.05h1.143v5.335h-1.143v-.589a2.372,2.372,0,0,1-.659.5A1.465,1.465,0,0,1,286.675,1266.442Zm3.882,4.316h-1.942v.913a1.009,1.009,0,0,0,.1.531.388.388,0,0,0,.344.146.428.428,0,0,0,.354-.126.994.994,0,0,0,.1-.551v-.221h1.046v.249a1.51,1.51,0,0,1-.383,1.123,1.557,1.557,0,0,1-1.139.374,1.438,1.438,0,0,1-1.075-.4,1.509,1.509,0,0,1-.393-1.1v-2.176A1.337,1.337,0,0,1,288,1268.5a1.575,1.575,0,0,1,1.111-.4,1.472,1.472,0,0,1,1.073.368,1.413,1.413,0,0,1,.373,1.055Z" transform="translate(-271.025 -1253.665)"/></svg>